<svg version="1.1" id="Layer_1" xmlns="http://www.w3.org/2000/svg" xmlns:xlink="http://www.w3.org/1999/xlink" x="0px" y="0px"
	 width="100%" viewBox="0 0 1024 1024" enable-background="new 0 0 1024 1024" xml:space="preserve">
<path fill="#000000" opacity="1.000000" stroke="none" 
	d="
M106.830315,594.122925 
	C106.649338,590.103699 108.118942,587.663147 111.562447,586.332886 
	C118.070557,583.818665 121.410904,577.507751 119.233665,570.951660 
	C117.055443,564.392578 117.350395,558.466370 120.696304,552.260559 
	C123.163452,547.684631 121.938751,542.445801 120.497116,537.652344 
	C119.644981,534.818970 118.421753,531.876648 116.599152,529.595520 
	C110.271553,521.675964 111.234222,512.705811 112.601555,503.787415 
	C113.691200,496.680267 115.269135,489.925659 110.901100,483.096405 
	C108.295845,479.023193 110.938766,472.492432 115.374870,470.394806 
	C119.155212,468.607269 121.423981,465.900513 122.522774,461.962982 
	C123.790649,457.419525 126.543137,454.492493 131.408386,453.577820 
	C135.110153,452.881897 138.282913,451.241455 139.932175,447.410583 
	C141.130203,444.627808 143.554077,443.794434 146.525085,443.965668 
	C149.115234,444.114929 151.418762,445.068115 153.628510,446.184875 
	C156.659805,447.716888 159.737747,448.828735 162.259354,445.825958 
	C164.753098,442.856415 166.294785,439.575073 164.468399,435.314026 
	C161.311249,427.948303 162.357391,424.367340 168.519623,419.346252 
	C169.935257,418.192749 170.694016,416.901855 170.761185,415.122192 
	C170.924316,410.800262 171.378128,406.480774 170.089096,402.216370 
	C168.813873,397.997711 168.844421,393.696045 169.413010,389.341858 
	C170.255020,382.893982 170.099747,376.635132 168.570602,370.100281 
	C166.480576,361.168488 171.494186,353.810791 176.665604,346.981262 
	C178.556519,344.484070 181.111389,342.591248 182.713470,339.736023 
	C186.132126,333.643372 187.111191,327.540955 183.800766,321.173523 
	C181.805771,317.336334 182.125153,313.805298 184.720459,310.438751 
	C188.944092,304.960022 191.844040,298.986511 193.342850,292.111206 
	C194.677216,285.990234 199.417786,283.380768 205.415390,284.424927 
	C207.639847,284.812195 208.907440,283.715363 209.882401,282.041229 
	C210.840546,280.395905 211.675507,278.309082 209.967514,276.995239 
	C205.472473,273.537445 208.219452,271.253143 210.818207,268.615295 
	C213.197632,266.200073 215.883530,264.359802 218.756332,263.087891 
	C221.109131,263.504059 220.591110,265.959717 222.017670,266.841980 
	C226.498428,265.132141 227.993088,262.068909 225.979309,258.720642 
	C222.665955,253.211639 223.385849,245.481506 227.615250,241.154327 
	C232.011246,236.656631 231.302795,226.940842 226.028351,223.636780 
	C222.897430,221.675476 221.252686,219.180115 220.781967,215.650818 
	C220.095917,210.507050 217.851868,206.836456 212.548248,204.854797 
	C206.866211,202.731781 204.302963,193.886902 208.656082,190.284607 
	C214.885315,185.129822 212.539001,179.883133 210.354416,174.585678 
	C207.280472,167.131653 208.497086,161.985931 215.438797,157.270691 
	C218.817734,154.975510 221.763779,152.370117 223.197372,148.419540 
	C224.232697,145.566437 224.846802,142.944473 222.969604,139.893875 
	C220.874619,136.489410 221.834534,132.441422 222.335831,128.651596 
	C222.532288,127.166466 223.660294,126.389519 225.093719,126.145164 
	C225.911987,126.005676 226.749435,125.971397 227.579803,125.911308 
	C238.241531,125.139809 238.422470,125.147919 238.840942,114.525917 
	C239.056259,109.060509 242.830521,108.110985 246.637039,108.202690 
	C251.889954,108.329239 254.704315,106.627167 256.477783,101.463387 
	C258.948395,94.269646 265.339203,92.491013 272.228729,92.553703 
	C275.870850,92.586823 279.117981,91.960823 282.021423,89.663727 
	C283.644836,88.379333 285.565033,87.883888 287.670441,88.282822 
	C298.199371,90.277885 302.869629,87.963165 305.738770,78.085213 
	C307.032288,73.631691 309.458405,72.021172 313.486115,72.079155 
	C319.076904,72.159637 321.574707,69.197060 322.436401,64.045189 
	C323.026001,60.520313 324.014740,56.704662 328.245148,56.249947 
	C332.783478,55.762135 337.421478,54.131836 341.451599,59.085541 
	C346.505249,65.297287 361.108002,62.088585 364.119202,54.594185 
	C364.972900,52.469547 366.178741,50.412811 368.335205,49.958469 
	C374.443756,48.671463 380.496277,46.118542 386.899261,47.829208 
	C389.544708,48.535988 391.075378,48.384548 392.460632,45.595657 
	C395.002228,40.478752 400.526886,39.206432 403.729431,43.679722 
	C408.965576,50.993546 415.498322,53.520897 424.118744,53.488777 
	C428.487762,53.472492 432.916351,55.033100 437.140076,56.745728 
	C443.583984,59.358589 450.319092,59.722374 457.189209,58.655994 
	C461.789368,57.941956 466.432648,57.500816 471.060822,56.974575 
	C472.901978,56.765232 474.743042,56.763012 476.351593,57.905712 
	C483.051544,62.665459 489.571838,63.137241 497.042786,58.842415 
	C501.682587,56.175133 507.456573,54.994629 512.406128,59.396732 
	C513.201233,60.103859 514.093811,60.620728 515.119141,60.304653 
	C522.188110,58.125450 529.859314,57.614059 535.874695,52.527653 
	C540.959717,48.227959 546.833313,44.674183 551.208801,39.765903 
	C557.766418,32.409763 564.855042,35.156685 573.468567,39.184795 
	C576.999634,40.836094 579.490845,44.474419 583.700134,45.147858 
	C584.150330,45.219872 584.818115,45.555786 584.925110,45.908703 
	C587.141968,53.221336 593.739990,51.797932 598.965820,52.795528 
	C602.252258,53.422901 604.184143,54.622524 606.274353,57.604443 
	C609.548645,62.275604 614.376648,65.863434 618.596130,69.857727 
	C619.035706,70.273888 620.019775,70.715569 620.396973,70.506416 
	C625.683655,67.575348 629.048584,71.869812 633.075073,73.729988 
	C635.789124,74.983856 638.549622,75.858154 641.655518,76.096794 
	C648.174683,76.597694 653.100586,80.716438 657.362183,85.071243 
	C660.727783,88.510376 664.327026,89.915092 668.840210,89.981895 
	C671.980957,90.028381 675.132446,89.763870 678.077271,91.480164 
	C679.863708,92.521378 681.593506,91.591644 683.124390,90.390190 
	C686.920715,87.410683 690.603455,87.168243 694.291260,90.713463 
	C697.627319,93.920471 701.953064,94.718208 706.326599,94.779625 
	C713.931030,94.886383 721.534241,95.768211 729.112000,93.607941 
	C733.820190,92.265724 741.738159,97.123940 744.127625,102.355972 
	C745.463135,105.279991 747.223572,107.007820 750.331848,108.212318 
	C755.418823,110.183578 758.802612,114.808144 761.689575,118.993523 
	C764.402710,122.926987 767.189148,124.751221 771.469482,123.966843 
	C777.498474,122.862045 781.984802,124.535767 785.994202,129.273605 
	C788.783508,132.569794 792.124512,135.934326 797.412109,134.989761 
	C798.114807,134.864243 799.245850,135.824158 799.828247,136.558990 
	C802.719177,140.206390 806.148926,143.628708 808.140381,147.735687 
	C810.598389,152.804779 813.949890,156.732208 818.752319,159.217651 
	C825.492920,162.706161 830.565552,168.575165 838.044556,171.258118 
	C842.344910,172.800812 846.151367,177.141418 847.095947,182.478394 
	C847.604919,185.354370 849.098816,187.228439 851.403198,188.855560 
	C857.573242,193.212219 861.564819,198.843262 865.225769,205.775009 
	C869.250916,213.396057 871.559814,221.648422 875.681274,229.195999 
	C879.014404,235.299744 880.467590,242.595749 881.885071,249.540375 
	C883.923279,259.525604 884.404907,269.625397 881.293152,279.629120 
	C880.673950,281.619720 880.419983,284.159210 881.102356,286.046051 
	C884.514526,295.481598 883.389832,305.506439 885.249023,315.122589 
	C885.560120,316.731567 886.155090,318.743805 885.511780,320.005035 
	C881.234497,328.391296 881.481079,338.273651 876.603760,346.431549 
	C876.017273,347.412506 875.431580,348.599365 875.428467,349.692474 
	C875.388550,363.738922 871.952332,377.897430 877.076233,391.780945 
	C879.596313,398.609100 879.712280,406.145691 883.445557,412.704529 
	C884.999146,415.434113 884.195618,418.936615 884.020691,422.084595 
	C883.762756,426.725800 884.474915,431.186523 887.122070,434.981079 
	C892.387329,442.528534 894.748230,451.625336 900.287476,459.018341 
	C902.534546,462.017487 902.705872,465.633270 901.579834,469.075775 
	C900.531189,472.281281 899.958740,475.501556 899.670715,478.836090 
	C898.814392,488.750214 893.225586,496.509277 887.418701,503.929199 
	C883.986267,508.315125 881.469055,512.387085 881.992310,518.276489 
	C882.597168,525.085022 880.234924,531.651978 877.031494,537.374634 
	C873.781006,543.181091 872.870728,549.198120 872.083679,555.469604 
	C870.727295,566.277832 874.889832,576.501953 875.352783,587.114868 
	C875.380188,587.743042 875.718201,588.412170 876.068298,588.962585 
	C877.807678,591.696960 880.985413,593.917725 879.833740,597.749756 
	C878.307617,602.827759 877.013794,608.075928 873.297668,612.158325 
	C866.856812,619.234009 865.794556,627.547424 868.073608,636.378113 
	C868.822388,639.279541 867.922546,641.265137 866.427795,643.272400 
	C862.120911,649.056274 858.920227,655.435730 855.970581,661.975037 
	C854.479187,665.281433 853.925110,668.424622 855.164124,672.079102 
	C857.147644,677.929443 856.299927,683.476501 852.415833,688.586975 
	C847.881653,694.552795 846.023682,701.274963 847.628723,708.811768 
	C848.656433,713.637207 847.761536,717.912842 844.150330,721.709534 
	C840.963257,725.060303 839.133301,729.453430 836.711182,733.329346 
	C832.168213,740.599365 827.970581,747.510437 826.936523,756.351624 
	C826.468201,760.355591 821.351501,761.691711 817.882446,763.598145 
	C815.667358,764.815491 813.161987,765.752808 812.723694,768.587158 
	C811.646423,775.554749 806.454285,778.958862 801.015198,781.893860 
	C797.837158,783.608887 796.358582,785.708557 796.158325,789.275940 
	C795.728394,796.934875 795.037048,797.903015 787.778381,799.278748 
	C782.905640,800.202332 780.336060,802.683533 780.142029,807.553589 
	C779.942078,812.575012 778.016724,815.854309 772.723694,817.272461 
	C767.984863,818.542175 765.704590,822.755432 764.255371,827.127014 
	C762.628662,832.034119 759.793701,834.747009 754.397339,835.592407 
	C747.554016,836.664612 745.792603,839.034485 745.262817,846.029419 
	C744.960999,850.014709 744.140137,852.208679 739.240417,851.262573 
	C734.082581,850.266724 730.612427,853.376404 729.002014,858.092896 
	C727.720825,861.844971 725.795715,864.135864 721.551025,864.038635 
	C719.378113,863.988770 717.837769,865.451965 716.686523,867.153320 
	C715.273376,869.241638 713.276245,870.173096 710.911438,870.727661 
	C707.302856,871.573914 704.443237,871.710754 703.596863,866.888062 
	C703.026306,863.637329 700.840881,862.391357 697.716797,864.524597 
	C693.116760,867.665649 687.882263,869.447083 682.698425,871.216614 
	C678.303589,872.716797 676.298950,875.341370 676.112488,880.008972 
	C675.857727,886.386536 673.591309,887.438843 668.399231,884.054016 
	C667.842529,883.690979 667.234497,882.970642 666.727539,883.033997 
	C661.159851,883.730530 656.600342,879.634521 651.056580,879.923584 
	C647.114502,880.129028 644.012329,881.370361 641.458679,884.361389 
	C637.976990,888.439697 626.489319,889.128540 622.468994,885.507751 
	C621.544495,884.675049 620.406189,883.617188 619.476379,884.158325 
	C615.330261,886.571350 610.528870,884.938538 606.139160,886.796387 
	C602.436768,888.363281 597.963135,887.344849 593.831482,886.709717 
	C589.442810,886.035034 586.480530,883.967102 585.441467,879.406555 
	C585.020935,877.560852 583.168030,877.100952 581.540100,876.685120 
	C577.273071,875.595154 572.703003,875.004761 568.701233,876.477844 
	C562.922241,878.605103 557.014038,878.699707 551.473389,877.587708 
	C541.894592,875.665222 532.572754,876.128784 523.253479,878.154175 
	C516.879272,879.539490 510.653625,877.753296 504.358521,878.082886 
	C502.027710,878.205017 499.590637,877.917297 497.811523,879.837769 
	C495.618774,882.204773 492.740509,882.635071 489.972260,882.019348 
	C482.623383,880.384583 475.169586,881.238525 468.121521,882.430176 
	C457.555054,884.216614 446.803955,883.290039 436.458466,885.131165 
	C418.544708,888.319092 400.608826,886.296814 382.726105,887.347839 
	C378.209564,887.613342 374.435425,884.430054 370.056366,885.270996 
	C356.747864,887.826660 343.120361,886.464111 329.787720,888.694702 
	C327.252991,889.118835 324.917938,889.456543 323.358795,891.865112 
	C321.668396,894.476440 319.075195,893.626099 317.055298,892.682312 
	C309.829376,889.306030 302.378540,887.573792 294.351074,887.954956 
	C291.028503,888.112610 288.687347,886.343750 288.505432,882.541809 
	C288.132202,874.740051 283.848999,870.769592 276.175018,870.271729 
	C273.128906,870.074097 272.053253,868.259338 271.470459,865.449158 
	C269.572418,856.297119 266.854736,853.542847 257.837891,852.198364 
	C252.103683,851.343384 248.862320,847.071411 245.555557,843.410461 
	C239.373550,836.565979 231.756668,831.463623 225.106125,825.209961 
	C218.774811,819.256287 212.932449,813.116333 209.118378,805.231812 
	C208.204544,803.342834 207.849838,801.490601 208.596146,799.455200 
	C209.225845,797.737793 209.735214,795.974976 210.263611,794.221924 
	C211.096680,791.458130 211.894073,788.639832 209.252792,786.371094 
	C206.240585,783.783752 205.155197,787.980835 203.000641,788.355591 
	C200.818848,787.442627 200.554977,785.415466 201.778198,784.308350 
	C205.587173,780.861023 204.983627,776.498413 204.840225,772.249451 
	C204.699036,768.066345 205.171539,764.669373 210.247910,763.751953 
	C212.930695,763.267151 213.300217,760.801270 212.991898,758.571960 
	C212.490860,754.949219 212.488815,750.932495 210.832901,747.859802 
	C206.972076,740.695862 208.213867,732.942993 207.132034,725.481567 
	C206.613647,721.906250 206.603836,718.437622 201.683929,718.054077 
	C199.843521,717.910522 198.284332,716.388855 197.546478,714.692627 
	C193.761093,705.990906 186.333374,701.964417 177.935318,699.182068 
	C175.051651,698.226685 172.767639,696.654785 171.964478,693.678650 
	C170.931427,689.850525 168.219727,688.459412 164.676086,687.950195 
	C159.258484,687.171631 155.381897,685.307617 155.433914,678.601562 
	C155.466324,674.423584 151.851425,671.811646 147.933701,672.004700 
	C140.806351,672.355957 137.537064,668.130493 134.935471,662.700684 
	C132.842880,658.333313 129.923553,655.239014 124.731461,655.182434 
	C122.856560,655.161987 121.990364,654.252747 121.987679,652.419983 
	C121.986458,651.587036 121.947548,650.754150 121.945526,649.921204 
	C121.917770,638.494385 121.926353,638.437317 110.779022,636.928101 
	C108.213631,636.580750 106.753227,635.302673 106.408417,632.919861 
	C106.028336,630.293274 105.957230,627.620117 105.793266,624.964722 
	C105.627914,622.286560 106.661377,620.551392 109.471497,619.905579 
	C114.274796,618.801758 114.321594,615.543762 112.817551,611.798584 
	C110.547691,606.146423 106.495033,601.118164 106.830315,594.122925 
M450.813446,656.902771 
	C426.195618,646.893921 403.559296,633.536072 384.408752,615.061462 
	C356.473206,588.111877 338.337921,555.543274 330.323700,517.369202 
	C324.326935,488.804932 325.774475,460.620300 335.361420,433.259003 
	C349.972778,391.558167 375.511444,358.017212 413.218689,334.311890 
	C438.844666,318.201660 466.592407,307.891083 496.909607,305.787537 
	C529.672302,303.514282 560.834534,310.081451 590.118347,325.013214 
	C604.580688,332.387512 617.568115,341.970428 630.035156,352.337891 
	C639.846008,360.496429 639.898193,360.231049 648.128113,350.302460 
	C661.113464,334.636871 666.395996,336.123260 682.987915,341.063873 
	C687.735474,342.477570 692.343689,343.017975 697.213806,342.971069 
	C703.697083,342.908569 710.153259,341.049255 716.623535,342.369629 
	C720.656006,343.192535 723.693665,342.186646 726.445435,339.174164 
	C739.252258,325.153534 751.907593,310.999146 763.486816,295.938751 
	C769.273560,288.412323 768.619080,280.199860 762.000244,273.420197 
	C757.114563,268.415894 751.940063,263.693726 747.050049,258.693512 
	C737.267944,248.691147 727.610291,238.567352 717.355042,229.038773 
	C713.754395,225.693344 709.862427,223.002350 704.797607,222.369553 
	C698.142822,221.538086 693.215149,224.827927 688.881958,229.147217 
	C675.903015,242.084503 662.337830,254.395264 648.974121,266.922424 
	C646.789001,268.970795 644.832825,270.162872 642.046570,267.988373 
	C633.960205,261.677338 624.561523,257.643494 615.406189,253.316711 
	C600.499512,246.271866 585.097717,240.412628 569.068726,236.345367 
	C566.650330,235.731720 564.195923,235.280426 563.885864,231.929382 
	C563.274353,225.318329 562.481140,218.722534 561.671448,212.131683 
	C560.010925,198.615082 558.495789,185.075714 556.519836,171.604507 
	C555.248291,162.934814 547.396790,155.434845 539.872681,155.384308 
	C520.047241,155.251099 500.219116,155.198318 480.394592,155.386032 
	C471.077118,155.474274 464.296265,161.581604 463.318604,170.993713 
	C461.431000,189.165833 459.921967,207.378799 458.408081,225.587494 
	C457.701111,234.091034 457.880859,234.187225 449.553986,236.102737 
	C426.256012,241.462173 405.176758,252.158691 384.216644,263.145294 
	C373.479889,268.773163 373.540863,268.760284 364.473053,260.425140 
	C352.697662,249.601212 340.882019,238.820374 329.013275,228.098907 
	C320.577972,220.478958 312.399048,220.138168 303.295929,226.900406 
	C301.696075,228.088882 300.193054,229.434647 298.778748,230.841873 
	C284.964966,244.586212 271.107727,258.288086 257.412689,272.150085 
	C249.087234,280.577026 248.681488,289.220673 256.215912,298.381561 
	C268.169800,312.915924 280.278107,327.324646 292.456543,341.671509 
	C294.478699,344.053741 294.727112,345.711670 293.157257,348.599792 
	C278.754425,375.097351 264.670227,401.756775 258.224426,431.609863 
	C257.700500,434.036346 256.499084,435.397736 253.790726,435.317963 
	C236.107727,434.796967 218.664612,438.328583 201.001480,438.440338 
	C190.322937,438.507874 182.991608,446.489044 182.134506,457.092834 
	C181.608109,463.605316 182.039719,470.032410 182.114502,476.502441 
	C182.266663,489.667114 182.140900,502.835541 182.352493,515.998779 
	C182.494797,524.852234 188.949890,532.326416 197.276611,532.550171 
	C216.750320,533.073242 235.907654,537.788879 255.476089,536.743469 
	C258.663849,536.573181 260.004456,538.205994 260.281799,541.156006 
	C260.405548,542.472351 260.608704,543.792725 260.912476,545.078979 
	C267.356079,572.362610 277.794067,597.990601 292.894135,621.649475 
	C294.547821,624.240417 294.833832,626.023193 292.620331,628.596863 
	C280.457458,642.738892 268.488220,657.047791 256.485260,671.326965 
	C249.370758,679.790649 249.325516,689.221619 256.636963,697.520752 
	C260.484528,701.888062 264.845093,705.799683 268.902405,709.986450 
	C279.914398,721.349792 290.771240,732.866211 301.917664,744.095642 
	C309.525543,751.760132 317.558899,752.012268 326.045258,745.396179 
	C327.489014,744.270752 328.871704,743.060181 330.222565,741.823364 
	C344.349518,728.889832 358.513947,715.996338 372.532654,702.946350 
	C374.817841,700.819092 376.431183,700.730347 378.976776,702.434570 
	C401.778717,717.699951 426.763855,727.986328 453.339569,734.507080 
	C455.634277,735.070190 456.734070,735.843872 456.998138,738.304626 
	C459.052673,757.449646 461.143707,776.591675 463.398804,795.713928 
	C465.196991,810.961914 475.462494,816.500000 486.058258,814.182129 
	C488.460510,813.656555 491.035828,813.844788 493.531830,813.837830 
	C508.861755,813.795044 524.192993,813.903320 539.521301,813.734924 
	C550.256104,813.617004 556.780823,807.679077 557.576172,797.087341 
	C559.068604,777.213745 562.450439,757.508850 562.835693,737.542419 
	C562.875854,735.461304 563.427551,734.197998 565.748413,733.682800 
	C593.508301,727.520569 618.876404,715.524841 643.389709,701.522827 
	C645.743713,700.178223 647.099060,700.293762 648.862732,702.370544 
	C652.201294,706.301819 655.698792,710.120667 659.372131,713.740784 
	C669.458618,723.681213 679.516174,733.660400 689.882324,743.304871 
	C697.929749,750.792053 707.644653,750.753479 714.842224,743.607849 
	C729.850647,728.707825 744.860657,713.807373 759.700134,698.739807 
	C770.299377,687.977539 770.212708,680.781433 760.065979,669.399048 
	C748.092651,655.967590 736.239319,642.429199 724.243530,629.018005 
	C721.767090,626.249329 721.751587,624.230347 723.799316,620.852600 
	C731.836609,607.595703 738.900879,593.810608 742.842285,578.675232 
	C744.563843,572.064636 742.484497,569.945984 735.672363,570.461853 
	C715.211853,572.011292 694.767395,572.762024 674.623352,567.550171 
	C671.721130,566.799255 669.561951,567.430725 667.757324,570.049011 
	C664.452393,574.843689 660.700012,579.316895 657.816162,584.419617 
	C651.090515,596.320190 641.641479,606.016846 631.814880,615.257568 
	C617.921997,628.322083 602.483337,639.303345 585.324036,647.800598 
	C565.582092,657.576843 544.716003,664.078064 522.908081,666.040100 
	C498.674713,668.220337 474.743561,664.883423 450.813446,656.902771 
M590.219788,517.285156 
	C582.461060,508.751343 573.016235,502.448334 562.549255,497.978943 
	C548.128174,491.821075 551.618347,490.579010 543.584839,503.531586 
	C530.644104,524.396118 497.434418,528.842407 480.678101,514.225098 
	C475.227997,509.470734 470.187866,504.466766 466.763214,498.036652 
	C464.590576,493.957245 461.886475,492.910889 457.404510,495.021820 
	C441.645050,502.444427 427.625671,512.095581 416.965851,526.034485 
	C405.707764,540.755798 399.162628,557.209961 400.137482,576.071167 
	C400.565765,584.357422 406.122101,589.531250 414.336609,589.672424 
	C420.499603,589.778320 426.712158,589.346008 432.818726,589.971863 
	C456.011780,592.348999 479.293121,592.952393 502.560303,593.605469 
	C524.855896,594.231201 547.188416,594.054016 569.380615,591.540466 
	C581.640930,590.151794 593.961792,590.002014 606.214661,588.762939 
	C611.441223,588.234436 614.750061,585.735779 615.999451,580.405029 
	C617.615417,573.510437 616.222290,566.770142 614.932312,560.152466 
	C611.661377,543.373474 602.099426,530.024170 590.219788,517.285156 
M547.034607,374.466095 
	C532.294250,361.310272 514.940674,357.189575 495.933960,360.893463 
	C467.906433,366.355286 447.829895,391.181732 448.058899,419.797943 
	C448.270386,446.229309 460.962524,465.385376 484.578644,476.409668 
	C509.061066,487.838379 547.985962,479.834442 562.970398,445.627411 
	C572.577759,423.695374 569.613342,394.232544 547.034607,374.466095 
M620.167847,471.576630 
	C620.697876,477.069153 621.994629,482.361053 623.946045,487.535980 
	C631.834229,508.454071 644.846924,525.320618 663.652893,537.488403 
	C682.645203,549.776917 703.463135,556.229309 725.842407,551.100159 
	C762.650818,542.663940 789.366699,521.968079 799.950745,484.133331 
	C805.932495,462.750488 805.238525,441.759033 795.220947,421.465851 
	C783.116943,396.946136 763.510803,380.209564 738.699463,370.436798 
	C717.411316,362.051666 695.318176,361.964691 674.452637,373.383911 
	C657.244080,382.801758 642.794189,395.326721 631.954468,411.903870 
	C620.138123,429.974304 617.633362,449.822266 620.167847,471.576630 
M819.170837,466.309875 
	C818.562927,473.413086 817.961548,480.516876 817.345764,487.619415 
	C816.397766,498.551971 813.299500,508.718506 804.263123,515.608459 
	C799.527222,519.219482 796.848999,523.333618 795.791870,529.007263 
	C794.836060,534.137268 795.304382,534.703125 800.447388,534.858459 
	C808.812195,535.111145 816.948181,533.022705 825.238342,532.740662 
	C838.427185,532.291992 842.915283,528.125305 842.983704,514.853027 
	C843.089111,494.395660 842.876282,473.935669 842.667236,453.478149 
	C842.576294,444.578857 836.363708,438.180542 827.496460,437.436981 
	C822.756165,437.039490 820.336792,438.801758 820.442444,443.515198 
	C820.606995,450.857086 819.613586,458.100189 819.170837,466.309875 
z"/>
<path fill="#000000" opacity="1.000000" stroke="none" 
	d="
M663.394409,402.353455 
	C673.865723,394.104156 685.053894,387.809082 697.695862,384.842407 
	C712.302307,381.414795 726.728394,383.784119 740.029907,390.028748 
	C758.814148,398.847351 773.229614,412.384857 781.223755,432.186493 
	C790.348022,454.787537 787.000610,476.254700 775.874451,496.960602 
	C763.688904,519.638000 743.322632,530.988098 718.777527,534.168701 
	C682.123291,538.918457 648.602966,511.044495 639.340942,479.214722 
	C630.176880,447.721710 642.521729,420.021790 663.394409,402.353455 
M754.587463,469.341614 
	C755.139343,468.969910 755.711487,468.624817 756.239929,468.222290 
	C760.391418,465.059692 762.224365,461.023407 760.257935,455.963287 
	C758.344238,451.038849 754.653442,448.964264 749.251282,449.320740 
	C741.279114,449.846863 733.276855,449.901245 725.294373,450.295685 
	C722.051880,450.455902 720.754089,449.107941 720.794128,445.937103 
	C720.871948,439.772217 720.912537,433.603058 720.766479,427.440460 
	C720.668701,423.314575 721.317688,419.044220 719.330994,415.153351 
	C717.375732,411.324158 715.059753,407.730072 709.935425,408.471710 
	C703.988403,409.332367 700.418701,413.194305 700.366394,418.780090 
	C700.285278,427.445099 700.190186,436.116699 700.452576,444.774841 
	C700.558533,448.269806 699.575684,449.502533 696.024475,449.415710 
	C688.196899,449.224335 680.358948,449.286041 672.528748,449.431976 
	C668.063293,449.515167 664.471130,451.502258 662.340210,455.545624 
	C660.471497,459.091492 661.823242,462.422852 663.736938,465.407135 
	C666.049255,469.012970 669.516541,470.637970 673.889893,470.695465 
	C681.065430,470.789795 688.207153,470.396637 695.341919,469.751465 
	C698.932007,469.426819 700.472717,470.830109 700.397278,474.586151 
	C700.223145,483.248383 700.402161,491.917206 700.297363,500.581635 
	C700.262512,503.465912 700.994019,505.796753 703.392273,507.526917 
	C706.922302,510.073578 710.480469,511.759216 714.942322,509.566589 
	C719.464111,507.344482 721.852661,504.014618 721.654968,498.903870 
	C721.333069,490.582611 721.060852,482.259460 720.757446,473.937469 
	C720.670654,471.557037 720.952759,469.571014 724.111572,469.682434 
	C731.261475,469.934662 738.441345,469.224945 745.564392,470.340515 
	C748.398315,470.784332 751.200256,470.957153 754.587463,469.341614 
z"/>
</svg>